<svg xmlns="http://www.w3.org/2000/svg" width="512" height="512" viewBox="0 0 512 512">
  <defs>
    <style>
      .cls-1 {
        fill: #454a54;
      }

      .cls-1, .cls-2 {
        fill-rule: evenodd;
      }

      .cls-2 {
        fill: #3cca5e;
      }
    </style>
  </defs>
  <g id="ADLogo_Transparent_Grey_Small">
    <g id="Logo">
      <path id="Text" class="cls-1" d="M143.757,927.824H111.244a3.079,3.079,0,0,1-3.2-3.093c0-2.168-.866-3.073-2.91-3.073-6.672,0-17.121,8.637-39.773,8.637-40.366,0-49.37-25.025-49.37-46.957,0-29.036,13.64-42.633,46.76-53.147L96.43,819.376c7.835-2.461,9.59-4.319,9.59-8.637v-2.781c0-6.5-6.7-11.428-26.729-11.428-32.231,0-43.55,12.965-48.774,12.965-3.188,0-4.354-2.169-4.354-4.932v-21.94c0-4.018,1.744-6.808,9.282-9.883,11.911-4.95,30.787-7.731,49.959-7.731,26.7,0,43.539,6.176,52.262,16.056,8.116,9.27,11.615,18.86,11.615,40.783V922.261C149.281,925.655,147.826,927.824,143.757,927.824Zm-37.737-77.86c0-2.15-.585-3.083-2.333-3.083-1.162,0-2.892.3-8.423,2.47L81.9,854.612C67.976,860.167,61.3,866.036,61.3,878.7c0,13.6,6.1,20.085,20.908,20.085,13.059,0,23.815-4.639,23.815-17.293V849.964Zm383.572,77.86H455.913c-2.332,0-3.48-1.546-3.48-4.016,0-1.245-.3-2.15-2.911-2.15-6.668,0-15.68,8.637-38.325,8.637-43.568,0-68.243-30.89-68.243-80.633,0-55,28.455-84.653,70.853-84.653,21.2,0,31.069,8.344,33.961,8.344,1.754,0,2.614-1.555,2.614-4.026V710.943c0-3.4,1.473-5.563,4.946-5.563H489.9c3.473,0,4.917,2.159,4.917,5.563V922.261C494.816,925.655,493.65,927.824,489.592,927.824ZM450.382,813.21c0-8.354-8.7-14.841-24.1-14.841-22.641,0-36.866,15.152-36.866,50.68,0,29.349,9.86,47.867,36.866,47.867,12.493,0,24.1-4.3,24.1-18.218V813.21Z" transform="translate(0 -592)"/>
      <path id="Icon" class="cls-2" d="M203.381,754.42H169.124c-3.2,0-5.224-1.867-5.224-5.563V715.44c0-3.074,1.166-5.563,5.224-5.563h34.257c3.5,0,4.946,2.489,4.946,5.884v33.1C208.327,752.553,206.584,754.42,203.381,754.42Zm0-57.931H169.124c-3.2,0-5.224-1.868-5.224-5.564V657.509c0-3.074,1.166-5.563,5.224-5.563h34.257c3.5,0,4.946,2.489,4.946,5.884v33.095C208.327,694.621,206.584,696.489,203.381,696.489Zm0,115.863H169.124c-3.2,0-5.224-1.867-5.224-5.563V773.373c0-3.074,1.166-5.564,5.224-5.564h34.257c3.5,0,4.946,2.49,4.946,5.884v33.1C208.327,810.485,206.584,812.352,203.381,812.352Zm0,57.932H169.124c-3.2,0-5.224-1.868-5.224-5.564V831.3c0-3.074,1.166-5.563,5.224-5.563h34.257c3.5,0,4.946,2.489,4.946,5.884v33.1C208.327,868.416,206.584,870.284,203.381,870.284Zm0,57.927H169.124c-3.2,0-5.224-1.868-5.224-5.563V889.232c0-3.075,1.166-5.564,5.224-5.564h34.257c3.5,0,4.946,2.489,4.946,5.884v33.1C208.327,926.343,206.584,928.211,203.381,928.211Zm0,57.932H169.124c-3.2,0-5.224-1.867-5.224-5.564V947.163c0-3.074,1.166-5.563,5.224-5.563h34.257c3.5,0,4.946,2.489,4.946,5.884v33.095C208.327,984.276,206.584,986.143,203.381,986.143Zm0,57.927H169.124c-3.2,0-5.224-1.86-5.224-5.56V1005.1c0-3.08,1.166-5.568,5.224-5.568h34.257c3.5,0,4.946,2.488,4.946,5.888v33.09C208.327,1042.21,206.584,1044.07,203.381,1044.07Zm59.9-289.65H229.02c-3.2,0-5.224-1.867-5.224-5.563V715.44c0-3.074,1.162-5.563,5.224-5.563h34.257c3.5,0,4.943,2.489,4.943,5.884v33.1C268.22,752.553,266.476,754.42,263.277,754.42Zm0,57.932H229.02c-3.2,0-5.224-1.867-5.224-5.563V773.373c0-3.074,1.162-5.564,5.224-5.564h34.257c3.5,0,4.943,2.49,4.943,5.884v33.1C268.22,810.485,266.476,812.352,263.277,812.352Zm0,57.932H229.02c-3.2,0-5.224-1.868-5.224-5.564V831.3c0-3.074,1.162-5.563,5.224-5.563h34.257c3.5,0,4.943,2.489,4.943,5.884v33.1C268.22,868.416,266.476,870.284,263.277,870.284Zm0,57.927H229.02c-3.2,0-5.224-1.868-5.224-5.563V889.232c0-3.075,1.162-5.564,5.224-5.564h34.257c3.5,0,4.943,2.489,4.943,5.884v33.1C268.22,926.343,266.476,928.211,263.277,928.211Zm0,57.932H229.02c-3.2,0-5.224-1.867-5.224-5.564V947.163c0-3.074,1.162-5.563,5.224-5.563h34.257c3.5,0,4.943,2.489,4.943,5.884v33.095C268.22,984.276,266.476,986.143,263.277,986.143Zm0,57.927H229.02c-3.2,0-5.224-1.86-5.224-5.56V1005.1c0-3.08,1.162-5.568,5.224-5.568h34.257c3.5,0,4.943,2.488,4.943,5.888v33.09C268.22,1042.21,266.476,1044.07,263.277,1044.07Zm0,57.94H229.02c-3.2,0-5.224-1.87-5.224-5.57v-33.41c0-3.08,1.162-5.57,5.224-5.57h34.257c3.5,0,4.943,2.49,4.943,5.89v33.09C268.22,1100.14,266.476,1102.01,263.277,1102.01Zm59.914-347.59H288.923c-3.191,0-5.224-1.867-5.224-5.563V715.44c0-3.074,1.166-5.563,5.224-5.563h34.268c3.5,0,4.943,2.489,4.943,5.884v33.1C328.134,752.553,326.379,754.42,323.191,754.42Zm0-57.931H288.923c-3.191,0-5.224-1.868-5.224-5.564V657.509c0-3.074,1.166-5.563,5.224-5.563h34.268c3.5,0,4.943,2.489,4.943,5.884v33.095C328.134,694.621,326.379,696.489,323.191,696.489Zm0-57.932H288.923c-3.191,0-5.224-1.868-5.224-5.563V599.578c0-3.075,1.166-5.564,5.224-5.564h34.268c3.5,0,4.943,2.489,4.943,5.883v33.1C328.134,636.689,326.379,638.557,323.191,638.557Zm0,173.795H288.923c-3.191,0-5.224-1.867-5.224-5.563V773.373c0-3.074,1.166-5.564,5.224-5.564h34.268c3.5,0,4.943,2.49,4.943,5.884v33.1C328.134,810.485,326.379,812.352,323.191,812.352Zm0,57.932H288.923c-3.191,0-5.224-1.868-5.224-5.564V831.3c0-3.074,1.166-5.563,5.224-5.563h34.268c3.5,0,4.943,2.489,4.943,5.884v33.1C328.134,868.416,326.379,870.284,323.191,870.284Zm0,57.927H288.923c-3.191,0-5.224-1.868-5.224-5.563V889.232c0-3.075,1.166-5.564,5.224-5.564h34.268c3.5,0,4.943,2.489,4.943,5.884v33.1C328.134,926.343,326.379,928.211,323.191,928.211Zm0,57.932H288.923c-3.191,0-5.224-1.867-5.224-5.564V947.163c0-3.074,1.166-5.563,5.224-5.563h34.268c3.5,0,4.943,2.489,4.943,5.884v33.095C328.134,984.276,326.379,986.143,323.191,986.143Z" transform="translate(0 -592)"/>
    </g>
  </g>
</svg>
