<svg xmlns="http://www.w3.org/2000/svg" width="1422" height="512" viewBox="0 0 1422 512">
  <defs>
    <style>
      .cls-1 {
        fill: #454a54;
      }

      .cls-1, .cls-2 {
        fill-rule: evenodd;
      }

      .cls-2 {
        fill: #3cca5e;
      }
    </style>
  </defs>
  <g id="ADLogo_Transparent_Grey_Regular">
    <g id="Logo">
      <path id="Text" class="cls-1" d="M129.757,335.824H97.244a3.08,3.08,0,0,1-3.2-3.093c0-2.168-.867-3.073-2.91-3.073-6.672,0-17.121,8.637-39.773,8.637C11,338.3,1.991,313.27,1.991,291.338c0-29.036,13.64-42.633,46.76-53.147L82.43,227.376c7.835-2.461,9.59-4.319,9.59-8.637v-2.781c0-6.5-6.7-11.428-26.729-11.428-32.231,0-43.55,12.965-48.774,12.965-3.188,0-4.354-2.169-4.354-4.932v-21.94c0-4.018,1.744-6.808,9.283-9.883,11.911-4.95,30.787-7.731,49.959-7.731,26.7,0,43.539,6.176,52.262,16.056,8.116,9.27,11.615,18.86,11.615,40.783V330.261C135.281,333.655,133.826,335.824,129.757,335.824ZM92.02,257.964c0-2.15-.585-3.083-2.333-3.083-1.163,0-2.892.3-8.423,2.47L67.9,262.612C53.976,268.167,47.3,274.036,47.3,286.7c0,13.6,6.1,20.085,20.908,20.085,13.059,0,23.815-4.639,23.815-17.293V257.964ZM289.355,366.732c-12.471,25.629-42.684,34.585-78.107,34.585-22.648,0-46.46-5.864-54.295-9.881-4.946-2.47-6.39-4.336-6.39-8.957V360.528c0-3.073,1.166-5.242,3.78-5.242,5.8,0,16.251,13.6,52.262,13.6,11.034,0,24.674-1.547,33.675-7.714,9.594-6.807,11.041-16.086,11.041-26.27v-4.638c0-2.771-.87-4.318-2.614-4.318-3.776,0-14.814,9.881-36.6,9.881-43.539,0-68.216-29.664-68.216-79.407,0-55.291,28.458-83.408,71.138-83.408,21.2,0,28.454,8.957,35.422,8.957,2.614,0,2.892-.923,2.892-2.168,0-2.471.878-4.008,4.077-4.008h33.1c3.2,0,5.224,1.857,5.224,5.563V326.245C295.745,342.613,294.3,356.21,289.355,366.732ZM251.321,221.521c0-11.126-13.369-15.464-24.1-15.464-21.782,0-36.87,12.682-36.87,49.757,0,29.339,10.141,46.631,36.87,46.631,12.485,0,24.1-4,24.1-18.519v-62.4ZM402.083,214.4c-4.658,0-6.979-2.472-22.663-2.472-18,0-26.718,8.034-26.718,23.8v94.531c0,3.7-1.448,5.563-4.347,5.563H312.932c-2.614,0-4.658-1.867-4.658-5.563V181.353c0-3.706,1.455-5.563,4.658-5.563h33.686c2.892,0,4.062,1.226,4.062,3.4v3.092a3.015,3.015,0,0,0,3.188,2.782c8.716,0,15.1-11.739,37.455-11.739,13.063,0,14.818,4.951,14.818,10.2v26.26C406.141,212.563,404.975,214.4,402.083,214.4Zm49.648,121.421H417.475c-3.2,0-5.225-1.867-5.225-5.563V181.353c0-3.082,1.166-5.563,5.225-5.563h34.256c3.5,0,4.947,2.481,4.947,5.874v148.6C456.678,333.957,454.934,335.824,451.731,335.824Zm364.861,0H782.913c-2.332,0-3.48-1.546-3.48-4.016,0-1.245-.3-2.15-2.911-2.15-6.668,0-15.68,8.637-38.325,8.637-43.568,0-68.243-30.89-68.243-80.633,0-55,28.455-84.653,70.853-84.653,21.2,0,31.069,8.344,33.961,8.344,1.754,0,2.614-1.555,2.614-4.026V118.943c0-3.4,1.473-5.563,4.946-5.563H816.9c3.473,0,4.917,2.159,4.917,5.563V330.261C821.816,333.655,820.65,335.824,816.592,335.824ZM777.382,221.21c0-8.354-8.7-14.841-24.1-14.841-22.641,0-36.866,15.152-36.866,50.68,0,29.349,9.86,47.867,36.866,47.867,12.493,0,24.1-4.3,24.1-18.218V221.21Zm97.333,114.614H840.447c-3.192,0-5.224-1.867-5.224-5.563V181.353c0-3.082,1.177-5.563,5.224-5.563h34.268c3.5,0,4.943,2.481,4.943,5.874v148.6C879.658,333.957,877.914,335.824,874.715,335.824Zm164.075,30.908c-12.47,25.629-42.675,34.585-78.105,34.585-22.653,0-46.464-5.864-54.3-9.881-4.943-2.47-6.39-4.336-6.39-8.957V360.528c0-3.073,1.166-5.242,3.78-5.242,5.8,0,16.251,13.6,52.262,13.6,11.038,0,24.685-1.547,33.679-7.714,9.59-6.807,11.033-16.086,11.033-26.27v-4.638c0-2.771-.862-4.318-2.61-4.318-3.776,0-14.806,9.881-36.6,9.881-43.539,0-68.235-29.664-68.235-79.407,0-55.291,28.477-83.408,71.157-83.408,21.208,0,28.454,8.957,35.426,8.957,2.612,0,2.892-.923,2.892-2.168,0-2.471.9-4.008,4.07-4.008h33.11c3.2,0,5.23,1.857,5.23,5.563V326.245C1045.19,342.613,1043.73,356.21,1038.79,366.732Zm-38.04-145.211c0-11.126-13.366-15.464-24.1-15.464-21.771,0-36.885,12.682-36.885,49.757,0,29.339,10.167,46.631,36.885,46.631,12.485,0,24.1-4,24.1-18.519v-62.4Zm96.75,114.3h-34.27c-3.19,0-5.22-1.867-5.22-5.563V181.353c0-3.082,1.17-5.563,5.22-5.563h34.27c3.48,0,4.94,2.481,4.94,5.874v148.6C1102.44,333.957,1100.7,335.824,1097.5,335.824Zm89,2.471c-7.56,0-28.17-.6-39.79-10.805-8.72-7.111-13.64-18.84-13.64-42.036V211.008c0-2.471-1.17-3.7-3.2-3.7H1117.4c-3.51,0-5.25-1.868-5.25-5.875V181.353c0-4.026,1.74-5.563,5.25-5.563h12.47c2.03,0,3.2-.933,3.2-3.706V141.8c0-4.006,1.72-5.864,5.23-5.864h33.67c4.06,0,5.53,1.858,5.53,5.864v30.286c0,2.773,1.44,3.706,3.19,3.706h35.99c3.78,0,5.52,1.857,5.52,5.563v20.084c0,4.007-1.74,5.875-5.52,5.875h-35.99c-1.75,0-3.19.914-3.19,3.7v63.651c0,9.871.28,13.586,1.44,17.905,1.45,5.562,5.82,11.447,17.42,11.447,14.52,0,17.71-5.885,21.49-5.885,2.61,0,4.35,1.245,4.35,4.96v23.78C1222.2,335.523,1200.43,338.3,1186.5,338.3Zm170.45-2.471h-32.52a3.073,3.073,0,0,1-3.19-3.093c0-2.168-.86-3.073-2.89-3.073-6.7,0-17.15,8.637-39.8,8.637-40.37,0-49.37-25.025-49.37-46.957,0-29.036,13.64-42.633,46.76-53.147l33.68-10.815c7.84-2.461,9.59-4.319,9.59-8.637v-2.781c0-6.5-6.7-11.428-26.7-11.428-32.24,0-43.57,12.965-48.79,12.965-3.2,0-4.37-2.169-4.37-4.932v-21.94c0-4.018,1.76-6.808,9.31-9.883,11.89-4.95,30.76-7.731,49.93-7.731,26.7,0,43.55,6.176,52.27,16.056,8.11,9.27,11.62,18.86,11.62,40.783V330.261C1362.48,333.655,1361.03,335.824,1356.95,335.824Zm-37.74-77.86c0-2.15-.58-3.083-2.33-3.083-1.14,0-2.89.3-8.42,2.47l-13.34,5.261c-13.96,5.555-20.61,11.424-20.61,24.086,0,13.6,6.08,20.085,20.89,20.085,13.06,0,23.81-4.639,23.81-17.293V257.964Zm95.89,77.86h-34.27c-3.2,0-5.25-1.867-5.25-5.563V118.943c0-3.706,2.33-5.563,5.25-5.563h34.27c2.89,0,4.91,1.857,4.91,5.865V330.261C1420.01,333.957,1418.29,335.824,1415.1,335.824Z"/>
      <path id="Icon" class="cls-2" d="M523.381,162.42H489.124c-3.2,0-5.224-1.867-5.224-5.563V123.44c0-3.074,1.166-5.563,5.224-5.563h34.257c3.5,0,4.946,2.489,4.946,5.884v33.1C528.327,160.553,526.584,162.42,523.381,162.42Zm0-57.931H489.124c-3.2,0-5.224-1.868-5.224-5.564V65.509c0-3.074,1.166-5.563,5.224-5.563h34.257c3.5,0,4.946,2.489,4.946,5.883v33.1C528.327,102.621,526.584,104.489,523.381,104.489Zm0,115.863H489.124c-3.2,0-5.224-1.867-5.224-5.563V181.373c0-3.074,1.166-5.564,5.224-5.564h34.257c3.5,0,4.946,2.49,4.946,5.884v33.1C528.327,218.485,526.584,220.352,523.381,220.352Zm0,57.932H489.124c-3.2,0-5.224-1.868-5.224-5.564V239.3c0-3.074,1.166-5.563,5.224-5.563h34.257c3.5,0,4.946,2.489,4.946,5.884v33.1C528.327,276.416,526.584,278.284,523.381,278.284Zm0,57.927H489.124c-3.2,0-5.224-1.868-5.224-5.563V297.232c0-3.075,1.166-5.564,5.224-5.564h34.257c3.5,0,4.946,2.489,4.946,5.884v33.1C528.327,334.343,526.584,336.211,523.381,336.211Zm0,57.932H489.124c-3.2,0-5.224-1.867-5.224-5.564V355.163c0-3.074,1.166-5.563,5.224-5.563h34.257c3.5,0,4.946,2.489,4.946,5.884v33.1C528.327,392.276,526.584,394.143,523.381,394.143Zm0,57.931H489.124c-3.2,0-5.224-1.867-5.224-5.563V413.1c0-3.076,1.166-5.564,5.224-5.564h34.257c3.5,0,4.946,2.488,4.946,5.883v33.1C528.327,450.207,526.584,452.074,523.381,452.074Zm59.9-289.654H549.02c-3.2,0-5.224-1.867-5.224-5.563V123.44c0-3.074,1.162-5.563,5.224-5.563h34.257c3.5,0,4.943,2.489,4.943,5.884v33.1C588.22,160.553,586.476,162.42,583.277,162.42Zm0,57.932H549.02c-3.2,0-5.224-1.867-5.224-5.563V181.373c0-3.074,1.162-5.564,5.224-5.564h34.257c3.5,0,4.943,2.49,4.943,5.884v33.1C588.22,218.485,586.476,220.352,583.277,220.352Zm0,57.932H549.02c-3.2,0-5.224-1.868-5.224-5.564V239.3c0-3.074,1.162-5.563,5.224-5.563h34.257c3.5,0,4.943,2.489,4.943,5.884v33.1C588.22,276.416,586.476,278.284,583.277,278.284Zm0,57.927H549.02c-3.2,0-5.224-1.868-5.224-5.563V297.232c0-3.075,1.162-5.564,5.224-5.564h34.257c3.5,0,4.943,2.489,4.943,5.884v33.1C588.22,334.343,586.476,336.211,583.277,336.211Zm0,57.932H549.02c-3.2,0-5.224-1.867-5.224-5.564V355.163c0-3.074,1.162-5.563,5.224-5.563h34.257c3.5,0,4.943,2.489,4.943,5.884v33.1C588.22,392.276,586.476,394.143,583.277,394.143Zm0,57.931H549.02c-3.2,0-5.224-1.867-5.224-5.563V413.1c0-3.076,1.162-5.564,5.224-5.564h34.257c3.5,0,4.943,2.488,4.943,5.883v33.1C588.22,450.207,586.476,452.074,583.277,452.074Zm0,57.933H549.02c-3.2,0-5.224-1.868-5.224-5.564V471.027c0-3.074,1.162-5.563,5.224-5.563h34.257c3.5,0,4.943,2.489,4.943,5.883v33.1C588.22,508.139,586.476,510.007,583.277,510.007ZM643.191,162.42H608.923c-3.191,0-5.224-1.867-5.224-5.563V123.44c0-3.074,1.166-5.563,5.224-5.563h34.268c3.5,0,4.943,2.489,4.943,5.884v33.1C648.134,160.553,646.379,162.42,643.191,162.42Zm0-57.931H608.923c-3.191,0-5.224-1.868-5.224-5.564V65.509c0-3.074,1.166-5.563,5.224-5.563h34.268c3.5,0,4.943,2.489,4.943,5.883v33.1C648.134,102.621,646.379,104.489,643.191,104.489Zm0-57.933H608.923c-3.191,0-5.224-1.867-5.224-5.563V7.578c0-3.075,1.166-5.564,5.224-5.564h34.268c3.5,0,4.943,2.489,4.943,5.883v33.1C648.134,44.689,646.379,46.557,643.191,46.557Zm0,173.8H608.923c-3.191,0-5.224-1.867-5.224-5.563V181.373c0-3.074,1.166-5.564,5.224-5.564h34.268c3.5,0,4.943,2.49,4.943,5.884v33.1C648.134,218.485,646.379,220.352,643.191,220.352Zm0,57.932H608.923c-3.191,0-5.224-1.868-5.224-5.564V239.3c0-3.074,1.166-5.563,5.224-5.563h34.268c3.5,0,4.943,2.489,4.943,5.884v33.1C648.134,276.416,646.379,278.284,643.191,278.284Zm0,57.927H608.923c-3.191,0-5.224-1.868-5.224-5.563V297.232c0-3.075,1.166-5.564,5.224-5.564h34.268c3.5,0,4.943,2.489,4.943,5.884v33.1C648.134,334.343,646.379,336.211,643.191,336.211Zm0,57.932H608.923c-3.191,0-5.224-1.867-5.224-5.564V355.163c0-3.074,1.166-5.563,5.224-5.563h34.268c3.5,0,4.943,2.489,4.943,5.884v33.1C648.134,392.276,646.379,394.143,643.191,394.143Zm-191.46-231.76H417.475c-3.2,0-5.225-1.858-5.225-5.564V123.412c0-3.083,1.166-5.563,5.225-5.563h34.256c3.5,0,4.947,2.48,4.947,5.875v33.095C456.678,160.525,454.934,162.383,451.731,162.383Zm422.936,0H840.411c-3.2,0-5.225-1.858-5.225-5.564V123.412c0-3.083,1.156-5.563,5.225-5.563h34.256c3.5,0,4.947,2.48,4.947,5.875v33.095C879.614,160.525,877.859,162.383,874.667,162.383Zm222.113,0h-34.27c-3.19,0-5.22-1.858-5.22-5.564V123.412c0-3.083,1.17-5.563,5.22-5.563h34.27c3.49,0,4.95,2.48,4.95,5.875v33.095C1101.73,160.525,1099.97,162.383,1096.78,162.383Z"/>
    </g>
  </g>
</svg>
